<svg width="566" height="271" viewBox="0 0 566 271" fill="none" xmlns="http://www.w3.org/2000/svg">
<path d="M57.569 206V97.6512H75.183V142.501L114.112 97.6512H135.648L92.7231 145.831L140.755 206H118.034L75.183 150.641V206H57.569ZM148.822 105.496C148.822 102.782 149.809 100.439 151.782 98.4653C153.805 96.4917 156.198 95.505 158.961 95.505C161.823 95.505 164.191 96.4671 166.066 98.3913C167.99 100.266 168.952 102.634 168.952 105.496C168.952 108.358 167.99 110.775 166.066 112.749C164.142 114.673 161.773 115.635 158.961 115.635C156.198 115.635 153.805 114.649 151.782 112.675C149.809 110.652 148.822 108.259 148.822 105.496ZM150.968 206V135.84H167.028V206H150.968ZM181.978 193.27L195.299 186.018C196.286 189.521 198.112 192.185 200.776 194.011C203.44 195.836 206.869 196.749 211.063 196.749C214.665 196.749 217.477 195.935 219.5 194.307C221.572 192.629 222.608 190.359 222.608 187.498C222.608 183.699 218.957 180.442 211.655 177.729C209.188 176.841 207.289 176.1 205.956 175.508C198.457 172.4 193.202 169.242 190.193 166.035C187.232 162.828 185.752 158.93 185.752 154.342C185.752 148.076 188.194 142.994 193.079 139.096C198.013 135.198 204.526 133.249 212.617 133.249C218.045 133.249 222.682 134.261 226.531 136.284C230.429 138.257 233.266 141.094 235.042 144.795L223.645 152.64C222.806 150.419 221.326 148.668 219.204 147.385C217.132 146.053 214.714 145.387 211.951 145.387C208.892 145.387 206.425 146.127 204.55 147.607C202.725 149.038 201.812 150.962 201.812 153.38C201.812 157.031 205.956 160.361 214.245 163.371C216.86 164.308 218.883 165.073 220.314 165.665C226.778 168.231 231.391 171.142 234.154 174.398C236.966 177.605 238.372 181.626 238.372 186.462C238.372 193.468 235.831 198.969 230.749 202.966C225.667 206.913 218.661 208.886 209.731 208.886C202.873 208.886 197.174 207.604 192.635 205.038C188.096 202.472 184.543 198.55 181.978 193.27ZM254.58 206V91.2865H269.678V147.311C272.885 142.476 276.659 138.948 281.001 136.728C285.343 134.508 290.622 133.397 296.839 133.397C302.069 133.397 306.51 134.236 310.161 135.914C313.861 137.542 316.748 139.984 318.82 143.241C320.053 145.165 320.941 147.41 321.484 149.975C322.027 152.541 322.298 157.031 322.298 163.445V206H306.09V169.958C306.09 160.731 304.955 154.613 302.686 151.604C300.466 148.545 296.494 147.015 290.77 147.015C287.021 147.015 283.666 147.706 280.705 149.087C277.794 150.469 275.5 152.418 273.822 154.934C272.638 156.612 271.8 158.782 271.306 161.447C270.862 164.062 270.64 168.256 270.64 174.028V206H254.58ZM398.823 171.142C398.823 164.629 396.726 159.128 392.532 154.638C388.339 150.099 383.207 147.829 377.139 147.829C371.119 147.829 365.988 150.099 361.745 154.638C357.551 159.128 355.454 164.629 355.454 171.142C355.454 177.655 357.551 183.181 361.745 187.72C365.988 192.21 371.119 194.455 377.139 194.455C383.158 194.455 388.265 192.21 392.458 187.72C396.702 183.181 398.823 177.655 398.823 171.142ZM338.506 170.994C338.506 165.863 339.468 161.027 341.392 156.488C343.366 151.9 346.178 147.829 349.829 144.277C353.431 140.774 357.576 138.085 362.263 136.21C366.95 134.335 371.859 133.397 376.991 133.397C382.27 133.397 387.229 134.335 391.866 136.21C396.554 138.085 400.747 140.848 404.448 144.499C408.148 148.101 410.961 152.171 412.885 156.71C414.809 161.249 415.771 166.011 415.771 170.994C415.771 176.174 414.809 181.034 412.885 185.574C411.01 190.113 408.247 194.134 404.596 197.637C400.747 201.337 396.48 204.125 391.792 206C387.105 207.924 382.171 208.886 376.991 208.886C371.909 208.886 367.024 207.924 362.337 206C357.65 204.125 353.481 201.387 349.829 197.785C346.129 194.134 343.317 190.039 341.392 185.5C339.468 180.96 338.506 176.125 338.506 170.994ZM448.853 147.015C450.58 142.377 452.85 138.948 455.662 136.728C458.524 134.508 462.051 133.397 466.245 133.397C468.515 133.397 470.735 133.669 472.906 134.212C475.126 134.754 477.297 135.544 479.419 136.58L473.646 150.197C472.265 149.211 470.76 148.495 469.132 148.051C467.553 147.558 465.776 147.311 463.803 147.311C458.474 147.311 454.65 149.457 452.332 153.75C450.013 157.993 448.853 165.147 448.853 175.212V206H432.793V135.692H448.853V147.015ZM556.166 173.288H500.067C500.462 179.85 502.411 184.982 505.914 188.682C509.417 192.333 514.079 194.159 519.902 194.159C525.082 194.159 529.399 193.073 532.853 190.902C536.307 188.731 539.316 185.228 541.882 180.393L555.426 187.942C551.479 194.997 546.594 200.252 540.772 203.706C534.95 207.159 528.116 208.886 520.272 208.886C509.022 208.886 500.067 205.457 493.406 198.599C486.746 191.741 483.415 182.589 483.415 171.142C483.415 160.139 486.844 151.11 493.702 144.055C500.61 136.95 509.466 133.397 520.272 133.397C531.57 133.397 540.377 136.629 546.693 143.093C553.008 149.556 556.166 158.61 556.166 170.254V173.288ZM539.514 162.483C538.872 157.45 536.948 153.626 533.741 151.012C530.534 148.347 526.143 147.015 520.568 147.015C515.288 147.015 511.045 148.298 507.838 150.863C504.631 153.429 502.386 157.302 501.103 162.483H539.514Z" fill="white"/>
<path d="M139.737 262C146.526 262 150.475 256.908 150.475 250.118C150.475 243.329 146.526 238.133 139.737 238.133H130.488V262H139.737ZM133.709 258.986V241.147H139.737C144.69 241.147 147.253 245.096 147.253 250.118C147.253 255.141 144.69 258.986 139.737 258.986H133.709ZM157.009 252.647C157.39 249.911 159.469 248.317 162.136 248.317C164.769 248.317 166.674 249.911 167.055 252.647H157.009ZM170.172 253.86C170.172 248.733 166.743 245.477 162.136 245.477C157.529 245.477 153.857 248.733 153.857 253.86C153.857 258.986 157.529 262.346 162.136 262.346C165.288 262.346 168.198 260.926 169.584 258.051C168.718 257.67 167.713 257.393 166.882 257.012C165.946 258.64 164.18 259.506 162.24 259.506C159.469 259.506 157.39 257.843 157.009 255.107H170.138C170.172 254.726 170.172 254.241 170.172 253.86ZM180.068 255.384C181.28 255.661 182.25 256.215 182.216 257.428C182.181 258.64 181.246 259.437 179.756 259.541C178.752 259.61 177.92 259.437 177.193 258.986C176.396 258.605 175.98 257.843 175.876 257.15H173.001C173.105 260.476 176.119 262.346 179.029 262.346C182.389 262.346 185.298 260.545 185.298 257.497C185.298 255.661 184.432 253.617 181.107 252.786L178.717 252.197C177.886 251.954 177.123 251.608 176.812 250.95C176.638 250.603 176.638 250.188 176.777 249.668C177.02 248.802 177.989 248.213 179.202 248.213C180.449 248.213 181.557 248.837 181.731 250.049H184.744C184.467 246.758 181.869 245.477 179.133 245.477C176.223 245.477 173.798 247.243 173.521 249.599C173.244 252.613 174.906 254.067 177.851 254.864L180.068 255.384ZM192.519 245.823H189.402V262H192.519V245.823ZM188.778 239.865C188.778 241.077 189.748 241.909 190.961 241.909C192.173 241.909 193.143 241.077 193.143 239.865C193.143 238.653 192.173 237.821 190.961 237.821C189.748 237.821 188.778 238.653 188.778 239.865ZM200.216 264.321C199.8 264.494 197.964 265.499 197.583 265.706C199.142 268.582 201.879 270.071 204.892 270.071C210.261 270.071 213.725 267.161 213.725 259.541V245.823H210.608V248.352C209.499 246.516 207.179 245.477 204.927 245.477C200.493 245.477 196.717 248.837 196.717 253.964C196.717 259.09 200.493 262.346 204.927 262.346C207.213 262.346 209.603 261.307 210.608 259.367C210.608 259.506 210.643 259.61 210.643 259.748C210.643 265.118 208.391 267.092 204.892 267.092C203.091 267.092 201.186 266.122 200.216 264.321ZM210.573 253.929C210.573 257.393 207.837 259.263 205.204 259.263C202.294 259.263 199.939 257.254 199.939 253.929C199.939 250.777 202.294 248.56 205.204 248.56C208.079 248.56 210.573 250.465 210.573 253.929ZM222.12 253.271C222.12 249.841 224.406 248.56 226.692 248.56C228.909 248.56 230.26 250.118 230.26 252.855V262H233.412V252.647C233.412 248.075 231.23 245.477 227.177 245.477C225.411 245.477 223.055 246.308 222.12 248.248V245.823H218.967V262H222.12V253.271ZM240.565 252.647C240.946 249.911 243.024 248.317 245.691 248.317C248.324 248.317 250.229 249.911 250.61 252.647H240.565ZM253.728 253.86C253.728 248.733 250.299 245.477 245.691 245.477C241.084 245.477 237.412 248.733 237.412 253.86C237.412 258.986 241.084 262.346 245.691 262.346C248.844 262.346 251.753 260.926 253.139 258.051C252.273 257.67 251.268 257.393 250.437 257.012C249.502 258.64 247.735 259.506 245.795 259.506C243.024 259.506 240.946 257.843 240.565 255.107H253.693C253.728 254.726 253.728 254.241 253.728 253.86ZM260.887 256.111C260.887 251.816 262.203 248.49 265.321 248.49C265.979 248.49 266.845 248.629 267.711 249.045L268.196 246.1C267.745 245.788 266.533 245.477 265.39 245.477C263.277 245.477 261.718 246.585 260.887 249.46V245.823H257.735V262H260.887V256.111Z" fill="#E5E5E5"/>
<path d="M330.981 262C337.77 262 341.719 256.908 341.719 250.119C341.719 243.33 337.77 238.134 330.981 238.134H321.732V262H330.981ZM324.954 258.986V241.147H330.981C335.934 241.147 338.498 245.096 338.498 250.119C338.498 255.141 335.934 258.986 330.981 258.986H324.954ZM348.253 252.647C348.634 249.911 350.713 248.318 353.38 248.318C356.012 248.318 357.918 249.911 358.299 252.647H348.253ZM361.416 253.86C361.416 248.733 357.987 245.477 353.38 245.477C348.773 245.477 345.101 248.733 345.101 253.86C345.101 258.986 348.773 262.346 353.38 262.346C356.532 262.346 359.442 260.926 360.827 258.051C359.961 257.67 358.957 257.393 358.125 257.012C357.19 258.64 355.424 259.506 353.484 259.506C350.713 259.506 348.634 257.843 348.253 255.107H361.381C361.416 254.726 361.416 254.241 361.416 253.86ZM363.074 245.824L369.794 262H372.843H372.808L379.563 245.824H376.203L371.319 257.982L366.4 245.824H363.074ZM384.482 252.647C384.863 249.911 386.942 248.318 389.609 248.318C392.241 248.318 394.147 249.911 394.528 252.647H384.482ZM397.645 253.86C397.645 248.733 394.216 245.477 389.609 245.477C385.002 245.477 381.33 248.733 381.33 253.86C381.33 258.986 385.002 262.346 389.609 262.346C392.761 262.346 395.671 260.926 397.056 258.051C396.19 257.67 395.186 257.393 394.354 257.012C393.419 258.64 391.653 259.506 389.713 259.506C386.942 259.506 384.863 257.843 384.482 255.107H397.61C397.645 254.726 397.645 254.241 397.645 253.86ZM401.652 237.025V262H404.804V237.025H401.652ZM417.453 262.346C422.06 262.346 425.939 258.986 425.939 253.86C425.939 248.733 422.06 245.477 417.453 245.477C412.846 245.477 409.001 248.733 409.001 253.86C409.001 258.986 412.846 262.346 417.453 262.346ZM417.453 259.298C414.508 259.298 412.118 257.185 412.118 253.86C412.118 250.604 414.508 248.56 417.453 248.56C420.328 248.56 422.787 250.604 422.787 253.86C422.787 257.185 420.328 259.298 417.453 259.298ZM433.286 245.824H430.134V269.863H433.286V259.575C434.395 261.411 436.646 262.346 438.932 262.346C443.366 262.346 447.038 259.09 447.038 253.964C447.038 248.837 443.366 245.477 438.932 245.477C436.646 245.477 434.395 246.516 433.286 248.352V245.824ZM433.321 253.998C433.321 250.569 435.78 248.56 438.621 248.56C441.53 248.56 443.851 250.777 443.851 253.998C443.851 257.22 441.53 259.264 438.621 259.264C436.023 259.264 433.321 257.462 433.321 253.998ZM453.321 252.647C453.702 249.911 455.78 248.318 458.447 248.318C461.08 248.318 462.985 249.911 463.366 252.647H453.321ZM466.484 253.86C466.484 248.733 463.054 245.477 458.447 245.477C453.84 245.477 450.169 248.733 450.169 253.86C450.169 258.986 453.84 262.346 458.447 262.346C461.599 262.346 464.509 260.926 465.895 258.051C465.029 257.67 464.024 257.393 463.193 257.012C462.258 258.64 460.491 259.506 458.551 259.506C455.78 259.506 453.702 257.843 453.321 255.107H466.449C466.484 254.726 466.484 254.241 466.484 253.86ZM473.642 256.111C473.642 251.816 474.959 248.491 478.076 248.491C478.734 248.491 479.6 248.629 480.466 249.045L480.951 246.101C480.501 245.789 479.288 245.477 478.145 245.477C476.032 245.477 474.474 246.586 473.642 249.461V245.824H470.49V262H473.642V256.111Z" fill="#E5E5E5"/>
<circle cx="293" cy="252" r="8" fill="#FB7712"/>
</svg>
